<mxfile host="app.diagrams.net" modified="2023-09-13T04:05:27.553Z" agent="Mozilla/5.0 (Windows NT 10.0; Win64; x64) AppleWebKit/537.36 (KHTML, like Gecko) Chrome/116.0.0.0 Safari/537.36" version="21.6.8" etag="WjrOcFr1LIhw70_aIC3y" type="github">
  <diagram name="第 1 页" id="F8MuRfY7DU8v6Dy1WJ1y">
    <mxGraphModel>
      <root>
        <mxCell id="0" />
        <mxCell id="1" parent="0" />
      </root>
    </mxGraphModel>
  </diagram>
</mxfile>
